<svg xmlns="http://www.w3.org/2000/svg" viewBox="0 0 640 640" width="640" height="640">
  <rect width="640" height="640" fill="#f2f0e8"/>
  <g stroke="#17160f" stroke-width="1.3" fill="none"><line x1="320" y1="276" x2="320" y2="30"/><line x1="329" y1="220.09" x2="311" y2="220.09"/><line x1="329" y1="164.18" x2="311" y2="164.18"/><line x1="329" y1="108.27" x2="311" y2="108.27"/><line x1="329" y1="52.36" x2="311" y2="52.36"/><line x1="351.11" y1="288.89" x2="468.49" y2="171.51"/><line x1="382.03" y1="266.45" x2="373.55" y2="257.97"/><line x1="408.71" y1="239.78" x2="400.22" y2="231.29"/><line x1="435.39" y1="213.1" x2="426.9" y2="204.61"/><line x1="462.06" y1="186.42" x2="453.58" y2="177.94"/><line x1="364" y1="320" x2="610" y2="320"/><line x1="419.91" y1="329" x2="419.91" y2="311"/><line x1="475.82" y1="329" x2="475.82" y2="311"/><line x1="531.73" y1="329" x2="531.73" y2="311"/><line x1="587.64" y1="329" x2="587.64" y2="311"/><line x1="351.11" y1="351.11" x2="468.49" y2="468.49"/><line x1="373.55" y1="382.03" x2="382.03" y2="373.55"/><line x1="400.22" y1="408.71" x2="408.71" y2="400.22"/><line x1="426.9" y1="435.39" x2="435.39" y2="426.9"/><line x1="453.58" y1="462.06" x2="462.06" y2="453.58"/><line x1="320" y1="364" x2="320" y2="610"/><line x1="311" y1="419.91" x2="329" y2="419.91"/><line x1="311" y1="475.82" x2="329" y2="475.82"/><line x1="311" y1="531.73" x2="329" y2="531.73"/><line x1="311" y1="587.64" x2="329" y2="587.64"/><line x1="288.89" y1="351.11" x2="171.51" y2="468.49"/><line x1="257.97" y1="373.55" x2="266.45" y2="382.03"/><line x1="231.29" y1="400.22" x2="239.78" y2="408.71"/><line x1="204.61" y1="426.9" x2="213.1" y2="435.39"/><line x1="177.94" y1="453.58" x2="186.42" y2="462.06"/><line x1="276" y1="320" x2="30" y2="320"/><line x1="220.09" y1="311" x2="220.09" y2="329"/><line x1="164.18" y1="311" x2="164.18" y2="329"/><line x1="108.27" y1="311" x2="108.27" y2="329"/><line x1="52.36" y1="311" x2="52.36" y2="329"/><line x1="288.89" y1="288.89" x2="171.51" y2="171.51"/><line x1="266.45" y1="257.97" x2="257.97" y2="266.45"/><line x1="239.78" y1="231.29" x2="231.29" y2="239.78"/><line x1="213.1" y1="204.61" x2="204.61" y2="213.1"/><line x1="186.42" y1="177.94" x2="177.94" y2="186.42"/><ellipse cx="320" cy="320" rx="70" ry="35" fill="none"/><circle cx="320" cy="320" r="44" fill="none"/><path d="M 100 70 L 70 70 L 70 100"/><path d="M 540 70 L 570 70 L 570 100"/><path d="M 100 570 L 70 570 L 70 540"/><path d="M 540 570 L 570 570 L 570 540"/></g><g transform="translate(250 250)"><g fill="#17160f"><circle cx="-2.02" cy="1.44" r="0.22"/><circle cx="-2.47" cy="3.59" r="0.27"/><circle cx="-1.55" cy="10.11" r="0.21"/><circle cx="-3.72" cy="19.06" r="0.2"/><circle cx="4.54" cy="3.1" r="0.2"/><circle cx="3.2" cy="5.23" r="0.2"/><circle cx="2.48" cy="8.39" r="0.24"/><circle cx="1.29" cy="14.6" r="0.27"/><circle cx="0.07" cy="16.86" r="0.26"/><circle cx="-0.47" cy="20.37" r="0.23"/><circle cx="-1.08" cy="23.16" r="0.24"/><circle cx="-2.08" cy="26.32" r="0.27"/><circle cx="-3.03" cy="28.36" r="0.25"/><circle cx="2.06" cy="23.67" r="0.24"/><circle cx="0.13" cy="29.71" r="0.22"/><circle cx="-4.14" cy="43.98" r="0.21"/><circle cx="11.23" cy="1.27" r="0.24"/><circle cx="7.83" cy="13.06" r="0.22"/><circle cx="6.64" cy="18.27" r="0.28"/><circle cx="4.95" cy="21.74" r="0.2"/><circle cx="1.03" cy="38.68" r="0.19"/><circle cx="15.19" cy="-3.58" r="0.22"/><circle cx="14.97" cy="-1.33" r="0.19"/><circle cx="11.25" cy="10.44" r="0.26"/><circle cx="10.52" cy="13.17" r="0.22"/><circle cx="9.49" cy="16.47" r="0.19"/><circle cx="7.2" cy="28.59" r="0.24"/><circle cx="-3.23" cy="65.61" r="0.23"/><circle cx="13.86" cy="14.65" r="0.22"/><circle cx="12" cy="19.97" r="0.24"/><circle cx="8.52" cy="31.43" r="0.23"/><circle cx="7.77" cy="34.78" r="0.23"/><circle cx="6.04" cy="43.4" r="0.27"/><circle cx="-2.38" cy="74.9" r="0.24"/><circle cx="19.94" cy="0.82" r="0.2"/><circle cx="17.52" cy="9.52" r="0.22"/><circle cx="16.26" cy="14.92" r="0.27"/><circle cx="14.89" cy="21.22" r="0.25"/><circle cx="13.38" cy="27.31" r="0.23"/><circle cx="12.12" cy="30.16" r="0.19"/><circle cx="11.76" cy="32.99" r="0.27"/><circle cx="7.27" cy="49.66" r="0.27"/><circle cx="2.09" cy="67.73" r="0.22"/><circle cx="0.54" cy="72.71" r="0.25"/><circle cx="0.52" cy="75.57" r="0.25"/><circle cx="-0.59" cy="79.47" r="0.23"/><circle cx="-1.84" cy="81.63" r="0.27"/><circle cx="-2.53" cy="87.56" r="0.25"/><circle cx="21.62" cy="7.74" r="0.27"/><circle cx="20.4" cy="9.82" r="0.2"/><circle cx="20.05" cy="12.99" r="0.23"/><circle cx="18.72" cy="19.33" r="0.24"/><circle cx="17.38" cy="24.97" r="0.26"/><circle cx="10.21" cy="48.23" r="0.28"/><circle cx="8.71" cy="53.94" r="0.2"/><circle cx="8.04" cy="56.46" r="0.23"/><circle cx="2.73" cy="76.44" r="0.25"/><circle cx="2.68" cy="80.01" r="0.26"/><circle cx="-1.47" cy="91.59" r="0.21"/><circle cx="27.35" cy="-3.97" r="0.24"/><circle cx="27.06" cy="-0.05" r="0.24"/><circle cx="25.05" cy="4.97" r="0.27"/><circle cx="22.72" cy="13.36" r="0.2"/><circle cx="21.05" cy="19.98" r="0.23"/><circle cx="20.36" cy="22.77" r="0.22"/><circle cx="19.62" cy="25.31" r="0.24"/><circle cx="6.22" cy="74.93" r="0.25"/><circle cx="5.96" cy="77.6" r="0.27"/><circle cx="4.9" cy="80.03" r="0.24"/><circle cx="3.73" cy="86.31" r="0.24"/><circle cx="1.63" cy="94.78" r="0.21"/><circle cx="-0.69" cy="100.94" r="0.19"/><circle cx="27.86" cy="6.28" r="0.26"/><circle cx="27.1" cy="8.9" r="0.26"/><circle cx="26.63" cy="11.27" r="0.21"/><circle cx="25" cy="17.17" r="0.19"/><circle cx="23.95" cy="22.88" r="0.19"/><circle cx="20.39" cy="35.45" r="0.25"/><circle cx="17.92" cy="44.04" r="0.26"/><circle cx="13.71" cy="58.62" r="0.21"/><circle cx="13.15" cy="63.94" r="0.28"/><circle cx="0.21" cy="110.73" r="0.28"/><circle cx="-1.12" cy="113.43" r="0.25"/><circle cx="31.62" cy="3.43" r="0.23"/><circle cx="31.25" cy="6.39" r="0.2"/><circle cx="28.03" cy="18.04" r="0.27"/><circle cx="26.2" cy="23.89" r="0.21"/><circle cx="25.4" cy="26.59" r="0.22"/><circle cx="23.78" cy="32.36" r="0.23"/><circle cx="22" cy="39.06" r="0.28"/><circle cx="20.46" cy="44.52" r="0.26"/><circle cx="19.66" cy="49.88" r="0.25"/><circle cx="16.03" cy="62.06" r="0.2"/><circle cx="14.63" cy="67.34" r="0.26"/><circle cx="13.18" cy="73.68" r="0.26"/><circle cx="10.66" cy="81.64" r="0.22"/><circle cx="9.6" cy="85.41" r="0.28"/><circle cx="6.19" cy="99.71" r="0.24"/><circle cx="3.45" cy="108.23" r="0.27"/><circle cx="-2.93" cy="134.76" r="0.27"/><circle cx="36.59" cy="-1.47" r="0.28"/><circle cx="34.96" cy="1.95" r="0.27"/><circle cx="34.76" cy="4.48" r="0.23"/><circle cx="29.99" cy="22.2" r="0.19"/><circle cx="29.36" cy="24.72" r="0.27"/><circle cx="28.99" cy="27.74" r="0.22"/><circle cx="27.31" cy="33.65" r="0.23"/><circle cx="21.85" cy="51.13" r="0.24"/><circle cx="21.06" cy="56.53" r="0.2"/><circle cx="19.68" cy="62.29" r="0.26"/><circle cx="17.88" cy="65.79" r="0.2"/><circle cx="14.13" cy="79.54" r="0.19"/><circle cx="11" cy="94.67" r="0.28"/><circle cx="-0.54" cy="135.24" r="0.27"/><circle cx="40" cy="-3.09" r="0.25"/><circle cx="38.76" cy="2.85" r="0.28"/><circle cx="32.51" cy="23.27" r="0.22"/><circle cx="31.72" cy="28.05" r="0.2"/><circle cx="28.1" cy="40.09" r="0.21"/><circle cx="27.07" cy="43.45" r="0.27"/><circle cx="26.89" cy="46.41" r="0.24"/><circle cx="24.75" cy="54.5" r="0.22"/><circle cx="23.92" cy="57.26" r="0.27"/><circle cx="20.15" cy="69.09" r="0.24"/><circle cx="16.28" cy="86.74" r="0.28"/><circle cx="8.38" cy="112.21" r="0.19"/><circle cx="5.69" cy="123.98" r="0.28"/><circle cx="2.59" cy="136.03" r="0.24"/><circle cx="42.12" cy="0.38" r="0.24"/><circle cx="36.26" cy="20.64" r="0.21"/><circle cx="35.62" cy="23.03" r="0.21"/><circle cx="35.56" cy="26.47" r="0.24"/><circle cx="31.04" cy="40.99" r="0.27"/><circle cx="27.11" cy="55.13" r="0.25"/><circle cx="26.47" cy="58.87" r="0.27"/><circle cx="23.56" cy="69.81" r="0.27"/><circle cx="22.4" cy="73.03" r="0.24"/><circle cx="19.53" cy="84.38" r="0.22"/><circle cx="17.15" cy="92.71" r="0.21"/><circle cx="16.3" cy="95.53" r="0.19"/><circle cx="12.86" cy="107.39" r="0.2"/><circle cx="10.5" cy="116.22" r="0.24"/><circle cx="9.46" cy="122.18" r="0.19"/><circle cx="6.93" cy="131.27" r="0.2"/><circle cx="6.78" cy="134.13" r="0.27"/><circle cx="5.13" cy="136.78" r="0.27"/><circle cx="4.29" cy="140.02" r="0.22"/><circle cx="43.67" cy="4.37" r="0.23"/><circle cx="43.33" cy="6.76" r="0.21"/><circle cx="37.54" cy="30.38" r="0.27"/><circle cx="36.72" cy="33.1" r="0.24"/><circle cx="32.58" cy="47.16" r="0.26"/><circle cx="29.43" cy="59.49" r="0.2"/><circle cx="26.28" cy="71.03" r="0.19"/><circle cx="25.24" cy="76.01" r="0.2"/><circle cx="21.84" cy="87.99" r="0.25"/><circle cx="20.6" cy="91.34" r="0.25"/><circle cx="19.74" cy="96.33" r="0.2"/><circle cx="17.47" cy="105.73" r="0.25"/><circle cx="15.32" cy="110.76" r="0.25"/><circle cx="7.09" cy="142.76" r="0.21"/><circle cx="47.47" cy="2.35" r="0.19"/><circle cx="40.34" cy="31.21" r="0.28"/><circle cx="35.84" cy="45.71" r="0.21"/><circle cx="33.63" cy="54.55" r="0.27"/><circle cx="30.6" cy="65.19" r="0.24"/><circle cx="29.76" cy="68.74" r="0.27"/><circle cx="24.91" cy="89.22" r="0.2"/><circle cx="15.8" cy="120.67" r="0.23"/><circle cx="48.19" cy="13.88" r="0.22"/><circle cx="44.97" cy="26.05" r="0.19"/><circle cx="37.89" cy="49.07" r="0.23"/><circle cx="37.62" cy="52.14" r="0.22"/><circle cx="27.77" cy="89.31" r="0.19"/><circle cx="27.22" cy="92.56" r="0.26"/><circle cx="25.5" cy="97.99" r="0.26"/><circle cx="23.81" cy="104.38" r="0.2"/><circle cx="19" cy="121.85" r="0.26"/><circle cx="17.89" cy="127.78" r="0.22"/><circle cx="17.12" cy="129.97" r="0.23"/><circle cx="13.52" cy="142" r="0.2"/><circle cx="55.47" cy="-1.94" r="0.28"/><circle cx="52.54" cy="6.37" r="0.27"/><circle cx="50.06" cy="17.96" r="0.28"/><circle cx="43.79" cy="37.77" r="0.23"/><circle cx="36.23" cy="67.3" r="0.27"/><circle cx="34.34" cy="76.31" r="0.28"/><circle cx="32.52" cy="81.52" r="0.26"/><circle cx="28.47" cy="96.59" r="0.25"/><circle cx="22.32" cy="121.83" r="0.18"/><circle cx="18.34" cy="133.61" r="0.21"/><circle cx="58.15" cy="-1.25" r="0.25"/><circle cx="49.91" cy="30.51" r="0.23"/><circle cx="48.22" cy="35.88" r="0.27"/><circle cx="45.38" cy="44.48" r="0.28"/><circle cx="39.93" cy="64.67" r="0.27"/><circle cx="39.25" cy="68.04" r="0.26"/><circle cx="34.99" cy="85.96" r="0.22"/><circle cx="33.59" cy="88.29" r="0.2"/><circle cx="33.76" cy="91.68" r="0.23"/><circle cx="32.26" cy="93.96" r="0.25"/><circle cx="31.59" cy="96.83" r="0.27"/><circle cx="29.42" cy="105.62" r="0.26"/><circle cx="28.44" cy="109.01" r="0.24"/><circle cx="24.2" cy="122.67" r="0.21"/><circle cx="21.87" cy="131.29" r="0.19"/><circle cx="21.19" cy="134.62" r="0.25"/><circle cx="21.36" cy="137.2" r="0.26"/><circle cx="59.08" cy="4.61" r="0.25"/><circle cx="55.96" cy="17.18" r="0.19"/><circle cx="53.7" cy="27.88" r="0.21"/><circle cx="47.55" cy="48.53" r="0.28"/><circle cx="46.22" cy="53.92" r="0.23"/><circle cx="42.65" cy="68.96" r="0.61"/><circle cx="38.88" cy="80.65" r="0.21"/><circle cx="28.37" cy="121.38" r="0.25"/><circle cx="26.6" cy="127.28" r="0.19"/><circle cx="26.4" cy="129.15" r="0.21"/><circle cx="57.3" cy="23.2" r="0.19"/><circle cx="57.04" cy="26.54" r="0.28"/><circle cx="55.95" cy="28.72" r="0.22"/><circle cx="55.77" cy="32.22" r="0.25"/><circle cx="49.76" cy="52.72" r="0.25"/><circle cx="48.89" cy="55.54" r="0.48"/><circle cx="48.45" cy="57.68" r="0.71"/><circle cx="47.85" cy="60.69" r="0.75"/><circle cx="46.88" cy="63.28" r="0.71"/><circle cx="45.76" cy="66.51" r="0.9"/><circle cx="45.53" cy="69.71" r="0.76"/><circle cx="44.16" cy="72.38" r="0.67"/><circle cx="43.22" cy="74.93" r="0.44"/><circle cx="42.64" cy="77.87" r="0.24"/><circle cx="38.53" cy="95.46" r="0.19"/><circle cx="27.81" cy="136.48" r="0.2"/><circle cx="64.61" cy="9.68" r="0.25"/><circle cx="64.23" cy="12.6" r="0.28"/><circle cx="61.26" cy="21.52" r="0.21"/><circle cx="59.46" cy="27.03" r="0.22"/><circle cx="59" cy="30.24" r="0.19"/><circle cx="57.28" cy="36.1" r="0.28"/><circle cx="52.93" cy="53.4" r="0.8"/><circle cx="51.83" cy="56.09" r="1.11"/><circle cx="51.41" cy="58.51" r="1.24"/><circle cx="50.43" cy="61.7" r="1.33"/><circle cx="49.74" cy="64.35" r="1.24"/><circle cx="49.03" cy="67.01" r="1.22"/><circle cx="48.21" cy="70.36" r="1.1"/><circle cx="46.96" cy="73.34" r="1.08"/><circle cx="46.38" cy="76.03" r="0.73"/><circle cx="45.56" cy="79.34" r="0.44"/><circle cx="45.53" cy="81.58" r="0.28"/><circle cx="43.82" cy="88.04" r="0.23"/><circle cx="41.65" cy="96.93" r="0.28"/><circle cx="35.99" cy="117.25" r="0.27"/><circle cx="34.54" cy="119.75" r="0.26"/><circle cx="33.86" cy="125.7" r="0.27"/><circle cx="29.4" cy="140.09" r="0.2"/><circle cx="66.91" cy="13.5" r="0.24"/><circle cx="64.85" cy="18.49" r="0.23"/><circle cx="62.73" cy="27.33" r="0.23"/><circle cx="57.51" cy="44.58" r="0.21"/><circle cx="57.72" cy="47.63" r="0.5"/><circle cx="56.87" cy="51.22" r="1"/><circle cx="55.53" cy="54.16" r="1.09"/><circle cx="55.43" cy="57.14" r="1.37"/><circle cx="54.2" cy="59.15" r="1.55"/><circle cx="53.92" cy="62.17" r="1.5"/><circle cx="52.81" cy="65.02" r="1.43"/><circle cx="51.58" cy="68.76" r="1.46"/><circle cx="50.75" cy="71.61" r="1.57"/><circle cx="50.16" cy="73.85" r="1.38"/><circle cx="49.23" cy="77.42" r="1.17"/><circle cx="49.04" cy="80.37" r="0.85"/><circle cx="48.08" cy="82.64" r="0.45"/><circle cx="39.28" cy="114.77" r="0.22"/><circle cx="38.89" cy="117.86" r="0.19"/><circle cx="35.71" cy="129.43" r="0.21"/><circle cx="34.47" cy="134.76" r="0.22"/><circle cx="31.61" cy="143.4" r="0.22"/><circle cx="70.78" cy="7.61" r="0.24"/><circle cx="69.92" cy="11.02" r="0.21"/><circle cx="69.4" cy="14.26" r="0.25"/><circle cx="65.52" cy="28.55" r="0.25"/><circle cx="64.52" cy="34.72" r="0.27"/><circle cx="62.95" cy="40.44" r="0.2"/><circle cx="60.58" cy="48.23" r="0.91"/><circle cx="59.56" cy="51.15" r="1.22"/><circle cx="59.07" cy="54.3" r="1.55"/><circle cx="57.5" cy="57.47" r="1.56"/><circle cx="57.55" cy="60.5" r="1.57"/><circle cx="55.76" cy="63.57" r="1.35"/><circle cx="55.71" cy="66.49" r="1.37"/><circle cx="55.27" cy="68.85" r="1.43"/><circle cx="54.17" cy="72.14" r="1.48"/><circle cx="53.62" cy="75.2" r="1.56"/><circle cx="52.05" cy="78.17" r="1.52"/><circle cx="51.93" cy="80.64" r="1.27"/><circle cx="50.39" cy="83.64" r="0.88"/><circle cx="50.38" cy="86.84" r="0.37"/><circle cx="47.4" cy="98.36" r="0.21"/><circle cx="44.13" cy="109.1" r="0.19"/><circle cx="41.82" cy="118.82" r="0.26"/><circle cx="40.62" cy="121.14" r="0.26"/><circle cx="40.14" cy="124.57" r="0.27"/><circle cx="36.88" cy="135.34" r="0.19"/><circle cx="71.31" cy="20.37" r="0.25"/><circle cx="67.2" cy="32.34" r="0.26"/><circle cx="63.73" cy="47.02" r="0.73"/><circle cx="63.31" cy="49.11" r="1.23"/><circle cx="61.83" cy="52.58" r="1.53"/><circle cx="61.32" cy="55.77" r="1.45"/><circle cx="60.92" cy="58.19" r="1.46"/><circle cx="60.2" cy="60.76" r="1.11"/><circle cx="58.64" cy="63.58" r="1.46"/><circle cx="58.7" cy="66.88" r="1.45"/><circle cx="57.6" cy="69.42" r="1.53"/><circle cx="56.77" cy="72.46" r="1.44"/><circle cx="56.53" cy="75.76" r="1.47"/><circle cx="55.25" cy="78.3" r="1.42"/><circle cx="54.72" cy="80.87" r="1.48"/><circle cx="53.52" cy="84.07" r="1.18"/><circle cx="53.02" cy="87.16" r="0.64"/><circle cx="50.55" cy="95.38" r="0.28"/><circle cx="47.02" cy="110.73" r="0.19"/><circle cx="46.16" cy="112.96" r="0.21"/><circle cx="44.37" cy="118.72" r="0.25"/><circle cx="44.15" cy="121.6" r="0.27"/><circle cx="42.36" cy="124.46" r="0.26"/><circle cx="41.79" cy="128.12" r="0.27"/><circle cx="39.54" cy="136.51" r="0.27"/><circle cx="80.44" cy="-1.81" r="0.2"/><circle cx="70.59" cy="33.05" r="0.27"/><circle cx="68.53" cy="41.24" r="0.19"/><circle cx="66.32" cy="47.92" r="1.04"/><circle cx="65.73" cy="50.02" r="1.39"/><circle cx="65.07" cy="53.63" r="1.53"/><circle cx="64.05" cy="56.32" r="1.34"/><circle cx="64.04" cy="58.51" r="1.02"/><circle cx="63.01" cy="62.16" r="1.35"/><circle cx="62.48" cy="64.5" r="1.54"/><circle cx="61.52" cy="67.94" r="1.57"/><circle cx="60.13" cy="70.41" r="1.47"/><circle cx="60.09" cy="73.44" r="1.55"/><circle cx="59.28" cy="75.97" r="1.41"/><circle cx="57.76" cy="79.61" r="1.45"/><circle cx="57.12" cy="82.55" r="1.49"/><circle cx="56.68" cy="85.4" r="1.4"/><circle cx="55.73" cy="87.43" r="1.11"/><circle cx="55.19" cy="90.75" r="0.54"/><circle cx="53.96" cy="93.84" r="0.28"/><circle cx="52.84" cy="99.29" r="0.26"/><circle cx="51.68" cy="102.22" r="0.21"/><circle cx="49.83" cy="110.9" r="0.27"/><circle cx="47.15" cy="119.47" r="0.24"/><circle cx="46.14" cy="125.14" r="0.26"/><circle cx="43.04" cy="137.24" r="0.24"/><circle cx="83.65" cy="-4.17" r="0.21"/><circle cx="82.32" cy="-1.34" r="0.26"/><circle cx="75.47" cy="24.66" r="0.21"/><circle cx="74.36" cy="30.31" r="0.24"/><circle cx="71.71" cy="39.29" r="0.2"/><circle cx="70.9" cy="45.74" r="0.66"/><circle cx="69.19" cy="48.46" r="1.25"/><circle cx="69.22" cy="51.26" r="1.53"/><circle cx="68.03" cy="53.43" r="1.49"/><circle cx="66.85" cy="56.4" r="1.22"/><circle cx="66.75" cy="60.11" r="1.24"/><circle cx="65.98" cy="62.66" r="1.5"/><circle cx="65" cy="65.21" r="1.55"/><circle cx="63.9" cy="68.4" r="1.48"/><circle cx="62.94" cy="71.73" r="1.48"/><circle cx="62.53" cy="74.34" r="1.54"/><circle cx="62.23" cy="77.26" r="1.42"/><circle cx="61.63" cy="80.32" r="1.24"/><circle cx="60.47" cy="83.46" r="1.56"/><circle cx="59.95" cy="86.2" r="1.46"/><circle cx="58.67" cy="88.28" r="1.16"/><circle cx="57.83" cy="91.91" r="0.71"/><circle cx="54.7" cy="103.14" r="0.19"/><circle cx="53.5" cy="108.51" r="0.25"/><circle cx="49.05" cy="123.02" r="0.27"/><circle cx="86.87" cy="-2.73" r="0.26"/><circle cx="82.34" cy="13.82" r="0.2"/><circle cx="80.82" cy="20.27" r="0.23"/><circle cx="74.12" cy="42.77" r="0.28"/><circle cx="73.69" cy="46.5" r="0.83"/><circle cx="73" cy="48.66" r="1.29"/><circle cx="72.28" cy="52.04" r="1.45"/><circle cx="71.43" cy="55.2" r="1.41"/><circle cx="70.61" cy="57.56" r="1.09"/><circle cx="69.14" cy="60.58" r="1.31"/><circle cx="68.45" cy="63.63" r="1.43"/><circle cx="67.89" cy="66.15" r="1.44"/><circle cx="66.64" cy="69.59" r="1.47"/><circle cx="66.48" cy="72.66" r="1.53"/><circle cx="65.17" cy="75.05" r="1.54"/><circle cx="64.35" cy="77.66" r="1.46"/><circle cx="63.68" cy="80.71" r="0.96"/><circle cx="63.56" cy="83.63" r="1.44"/><circle cx="62.77" cy="86.49" r="1.48"/><circle cx="61.33" cy="89.58" r="1.3"/><circle cx="61.34" cy="92.73" r="0.76"/><circle cx="52.88" cy="121.1" r="0.25"/><circle cx="52.23" cy="124.41" r="0.21"/><circle cx="51.21" cy="126.98" r="0.21"/><circle cx="50.59" cy="130.42" r="0.25"/><circle cx="48.32" cy="139.02" r="0.26"/><circle cx="78.89" cy="35.74" r="0.27"/><circle cx="75.86" cy="47.25" r="0.69"/><circle cx="74.89" cy="49.82" r="1.28"/><circle cx="74.41" cy="53.06" r="1.42"/><circle cx="73.7" cy="55.54" r="1.35"/><circle cx="72.67" cy="58.18" r="1.04"/><circle cx="71.98" cy="61.66" r="1.33"/><circle cx="71.75" cy="63.84" r="1.51"/><circle cx="70.49" cy="66.9" r="1.41"/><circle cx="70.05" cy="69.73" r="1.29"/><circle cx="69.43" cy="72.77" r="1.5"/><circle cx="68.99" cy="76.24" r="1.51"/><circle cx="68.02" cy="79.21" r="1.37"/><circle cx="66.93" cy="81.53" r="1.07"/><circle cx="66.3" cy="84.91" r="1.44"/><circle cx="65.01" cy="87.52" r="1.52"/><circle cx="64.59" cy="89.86" r="1.23"/><circle cx="63.59" cy="92.92" r="0.87"/><circle cx="62.51" cy="96.19" r="0.24"/><circle cx="61.57" cy="101.72" r="0.27"/><circle cx="58.96" cy="110.59" r="0.21"/><circle cx="54.9" cy="124.84" r="0.19"/><circle cx="91.91" cy="0.74" r="0.2"/><circle cx="86.06" cy="21.63" r="0.22"/><circle cx="81.42" cy="39.04" r="0.21"/><circle cx="80.62" cy="41.29" r="0.25"/><circle cx="79.05" cy="47.21" r="0.67"/><circle cx="78.49" cy="50.23" r="1.32"/><circle cx="77.22" cy="53.81" r="1.55"/><circle cx="76.59" cy="56.42" r="1.48"/><circle cx="75.65" cy="58.82" r="1.07"/><circle cx="75.61" cy="61.56" r="1.46"/><circle cx="74.04" cy="65.48" r="1.56"/><circle cx="73.72" cy="67.51" r="1.56"/><circle cx="73.23" cy="70.66" r="1.56"/><circle cx="71.83" cy="73.68" r="1.48"/><circle cx="70.99" cy="76.65" r="1.55"/><circle cx="70.38" cy="79.64" r="1.34"/><circle cx="70.09" cy="82.1" r="1.14"/><circle cx="68.94" cy="85.64" r="1.39"/><circle cx="68.08" cy="88.33" r="1.49"/><circle cx="67.65" cy="90.92" r="1.17"/><circle cx="66.29" cy="94.22" r="0.65"/><circle cx="65.47" cy="96.81" r="0.24"/><circle cx="64.81" cy="100.11" r="0.24"/><circle cx="64.12" cy="105.4" r="0.27"/><circle cx="60.43" cy="117.28" r="0.24"/><circle cx="57.84" cy="125.88" r="0.22"/><circle cx="53.84" cy="140.68" r="0.27"/><circle cx="96.32" cy="-4.3" r="0.19"/><circle cx="94.09" cy="5.15" r="0.28"/><circle cx="91.6" cy="10.65" r="0.22"/><circle cx="87.32" cy="27.81" r="0.19"/><circle cx="82.9" cy="45.22" r="0.22"/><circle cx="82.25" cy="48.88" r="0.76"/><circle cx="81.13" cy="51.43" r="1.09"/><circle cx="80.21" cy="54.46" r="1.45"/><circle cx="80.12" cy="57.51" r="1.45"/><circle cx="78.59" cy="60.24" r="1.2"/><circle cx="78.28" cy="63.31" r="1.49"/><circle cx="77.74" cy="65.77" r="1.56"/><circle cx="76.94" cy="68.92" r="1.43"/><circle cx="75.96" cy="71.8" r="1.54"/><circle cx="75.07" cy="74.99" r="1.51"/><circle cx="74.02" cy="77.43" r="1.47"/><circle cx="73.76" cy="80.58" r="1.23"/><circle cx="73.04" cy="83.05" r="1.14"/><circle cx="71.52" cy="85.96" r="1.57"/><circle cx="70.86" cy="89.47" r="1.54"/><circle cx="70.58" cy="92.29" r="1.21"/><circle cx="69.62" cy="94.8" r="0.78"/><circle cx="55.96" cy="143.91" r="0.23"/><circle cx="96.99" cy="3.27" r="0.25"/><circle cx="90.81" cy="25.51" r="0.24"/><circle cx="88.48" cy="34.53" r="0.22"/><circle cx="86.11" cy="43.44" r="0.27"/><circle cx="84.7" cy="48.76" r="0.27"/><circle cx="84.51" cy="52.01" r="0.96"/><circle cx="83.24" cy="55.25" r="1.33"/><circle cx="83.02" cy="58.19" r="1.46"/><circle cx="81.55" cy="61.19" r="1.33"/><circle cx="81.07" cy="63.82" r="1.44"/><circle cx="80.37" cy="66.93" r="1.48"/><circle cx="79.04" cy="69.87" r="1.48"/><circle cx="78.77" cy="72.01" r="1.44"/><circle cx="78.24" cy="74.75" r="1.57"/><circle cx="76.88" cy="77.72" r="1.32"/><circle cx="76.57" cy="80.58" r="0.99"/><circle cx="75.81" cy="83.82" r="1.37"/><circle cx="75.22" cy="86.58" r="1.48"/><circle cx="73.56" cy="89.44" r="1.31"/><circle cx="73.13" cy="92.5" r="1.06"/><circle cx="65.23" cy="124.44" r="0.26"/><circle cx="64.22" cy="127" r="0.21"/><circle cx="101.29" cy="-2.29" r="0.26"/><circle cx="90.24" cy="41.03" r="0.28"/><circle cx="89.25" cy="43.75" r="0.23"/><circle cx="87.29" cy="50.45" r="0.21"/><circle cx="87.34" cy="52.59" r="0.76"/><circle cx="86.52" cy="55.54" r="1.28"/><circle cx="85.66" cy="58.18" r="1.42"/><circle cx="84.94" cy="61.64" r="1.52"/><circle cx="83.71" cy="64.75" r="1.36"/><circle cx="82.82" cy="67.19" r="1.57"/><circle cx="81.87" cy="69.79" r="1.55"/><circle cx="81.17" cy="73.03" r="1.57"/><circle cx="80.89" cy="76.43" r="1.47"/><circle cx="80.03" cy="78.5" r="1.24"/><circle cx="79.15" cy="82.32" r="1.38"/><circle cx="78.92" cy="85.09" r="1.46"/><circle cx="77.92" cy="87.56" r="1.49"/><circle cx="77.34" cy="90.44" r="1.18"/><circle cx="76.65" cy="93.33" r="0.85"/><circle cx="74.85" cy="99.72" r="0.28"/><circle cx="66.3" cy="128.49" r="0.27"/><circle cx="65.33" cy="134.4" r="0.21"/><circle cx="64.64" cy="136.77" r="0.23"/><circle cx="105.11" cy="-1.6" r="0.26"/><circle cx="104.22" cy="1.94" r="0.28"/><circle cx="101.61" cy="9.88" r="0.19"/><circle cx="98.58" cy="21.81" r="0.21"/><circle cx="95.81" cy="33.02" r="0.27"/><circle cx="94.28" cy="36.5" r="0.27"/><circle cx="92.14" cy="45.37" r="0.19"/><circle cx="88.84" cy="56.34" r="0.95"/><circle cx="88.05" cy="59.88" r="1.24"/><circle cx="88.04" cy="62.77" r="1.49"/><circle cx="86.49" cy="65.43" r="1.53"/><circle cx="86.08" cy="67.93" r="1.51"/><circle cx="85.24" cy="71.38" r="1.45"/><circle cx="84.06" cy="73.79" r="1.43"/><circle cx="83.69" cy="77.33" r="1.35"/><circle cx="82.63" cy="79.59" r="1.44"/><circle cx="81.74" cy="82.45" r="1.5"/><circle cx="81.33" cy="85.75" r="1.53"/><circle cx="80.39" cy="88.73" r="1.26"/><circle cx="79.29" cy="91.75" r="0.95"/><circle cx="73.92" cy="114.34" r="0.23"/><circle cx="72.21" cy="119.94" r="0.25"/><circle cx="71.04" cy="125.87" r="0.21"/><circle cx="107.83" cy="-4.09" r="0.24"/><circle cx="105.3" cy="7.69" r="0.26"/><circle cx="97.26" cy="36.51" r="0.26"/><circle cx="94.52" cy="48.86" r="0.21"/><circle cx="93.1" cy="54.73" r="0.27"/><circle cx="91.76" cy="57.64" r="0.35"/><circle cx="90.97" cy="60.18" r="0.86"/><circle cx="90.64" cy="62.96" r="1.1"/><circle cx="90.07" cy="65.88" r="1.33"/><circle cx="89.35" cy="68.62" r="1.55"/><circle cx="88.56" cy="71.45" r="1.45"/><circle cx="87.31" cy="74.75" r="1.56"/><circle cx="86.26" cy="77.35" r="1.45"/><circle cx="85.49" cy="80.99" r="1.45"/><circle cx="84.76" cy="82.92" r="1.38"/><circle cx="84.24" cy="86.23" r="1.12"/><circle cx="83.32" cy="89.25" r="0.8"/><circle cx="82.61" cy="92.34" r="0.63"/><circle cx="70.57" cy="138.5" r="0.21"/><circle cx="110.72" cy="-3.17" r="0.19"/><circle cx="104.75" cy="23.31" r="0.18"/><circle cx="100.91" cy="37.49" r="0.24"/><circle cx="96.27" cy="52.08" r="0.19"/><circle cx="95.27" cy="57.88" r="0.23"/><circle cx="93.86" cy="61.22" r="0.26"/><circle cx="93.18" cy="63.73" r="0.8"/><circle cx="92.79" cy="66.92" r="1.1"/><circle cx="91.51" cy="69.2" r="1.17"/><circle cx="91.11" cy="73.02" r="1.28"/><circle cx="90.76" cy="74.9" r="1.18"/><circle cx="89.31" cy="78.74" r="1.19"/><circle cx="88.58" cy="81.22" r="1.21"/><circle cx="87.66" cy="83.87" r="0.91"/><circle cx="87.42" cy="86.77" r="0.7"/><circle cx="86.76" cy="90.47" r="0.32"/><circle cx="81.39" cy="107.59" r="0.26"/><circle cx="78.8" cy="119.01" r="0.23"/><circle cx="77.11" cy="124.97" r="0.23"/><circle cx="74.74" cy="133.41" r="0.26"/><circle cx="73.16" cy="139.55" r="0.27"/><circle cx="108.71" cy="18.18" r="0.22"/><circle cx="100.49" cy="46.7" r="0.25"/><circle cx="98.65" cy="56.23" r="0.28"/><circle cx="96.78" cy="64.55" r="0.35"/><circle cx="95.05" cy="67.2" r="0.67"/><circle cx="95.01" cy="70.17" r="0.86"/><circle cx="94.47" cy="73.51" r="0.71"/><circle cx="93.08" cy="75.87" r="0.86"/><circle cx="92.02" cy="78.94" r="0.81"/><circle cx="91.37" cy="81.97" r="0.45"/><circle cx="79.62" cy="125.93" r="0.2"/><circle cx="76.22" cy="140.38" r="0.27"/><circle cx="74.81" cy="143.25" r="0.24"/><circle cx="116.84" cy="-1.72" r="0.23"/><circle cx="116.55" cy="1.96" r="0.24"/><circle cx="111.64" cy="18.59" r="0.27"/><circle cx="110.31" cy="21.51" r="0.21"/><circle cx="104.15" cy="47.5" r="0.21"/><circle cx="102.65" cy="51.29" r="0.21"/><circle cx="101.01" cy="56.89" r="0.2"/><circle cx="98.69" cy="65.23" r="0.21"/><circle cx="98.77" cy="68.83" r="0.3"/><circle cx="97.94" cy="71.26" r="0.45"/><circle cx="96.94" cy="73.77" r="0.21"/><circle cx="94.24" cy="85.25" r="0.21"/><circle cx="92.45" cy="91.94" r="0.22"/><circle cx="90.23" cy="96.89" r="0.24"/><circle cx="90.08" cy="100.18" r="0.22"/><circle cx="88.84" cy="103.4" r="0.22"/><circle cx="87.87" cy="106.11" r="0.21"/><circle cx="87.2" cy="108.78" r="0.25"/><circle cx="84.75" cy="117.41" r="0.2"/><circle cx="84" cy="123.81" r="0.24"/><circle cx="82.72" cy="125.73" r="0.23"/><circle cx="82.4" cy="129.4" r="0.22"/><circle cx="79.52" cy="137.63" r="0.2"/><circle cx="79.08" cy="141.28" r="0.19"/><circle cx="121.14" cy="-3.92" r="0.25"/><circle cx="119.62" cy="2.43" r="0.26"/><circle cx="118.1" cy="4.77" r="0.28"/><circle cx="118.16" cy="8.49" r="0.2"/><circle cx="115.89" cy="13.78" r="0.24"/><circle cx="112.26" cy="28.38" r="0.22"/><circle cx="104.99" cy="54.39" r="0.25"/><circle cx="103.5" cy="60.24" r="0.26"/><circle cx="102.36" cy="63.1" r="0.21"/><circle cx="94.64" cy="95.1" r="0.28"/><circle cx="91.09" cy="106.7" r="0.21"/><circle cx="90.87" cy="109.09" r="0.23"/><circle cx="89.19" cy="115.24" r="0.22"/><circle cx="84.97" cy="129.42" r="0.28"/><circle cx="82.84" cy="138.84" r="0.2"/><circle cx="121.27" cy="5.73" r="0.24"/><circle cx="120.71" cy="9.07" r="0.22"/><circle cx="114.79" cy="29.25" r="0.2"/><circle cx="114.56" cy="32.3" r="0.28"/><circle cx="112.21" cy="40.71" r="0.27"/><circle cx="110.72" cy="47.05" r="0.24"/><circle cx="110.02" cy="49.07" r="0.24"/><circle cx="108.4" cy="52.2" r="0.22"/><circle cx="107.65" cy="54.87" r="0.27"/><circle cx="106.88" cy="61.34" r="0.27"/><circle cx="104.38" cy="70.4" r="0.24"/><circle cx="103.28" cy="72.2" r="0.21"/><circle cx="102.31" cy="79.08" r="0.22"/><circle cx="98.86" cy="90.51" r="0.23"/><circle cx="96.79" cy="99.23" r="0.22"/><circle cx="94.64" cy="107.1" r="0.27"/><circle cx="92.87" cy="109.87" r="0.27"/><circle cx="92.92" cy="113.65" r="0.26"/><circle cx="91.1" cy="118.96" r="0.21"/><circle cx="88.42" cy="127.45" r="0.25"/><circle cx="87.74" cy="130.29" r="0.22"/><circle cx="87.66" cy="133.41" r="0.28"/><circle cx="86.14" cy="136.48" r="0.27"/><circle cx="85.35" cy="139.09" r="0.28"/><circle cx="125.4" cy="0.65" r="0.19"/><circle cx="123.46" cy="9.29" r="0.2"/><circle cx="119.72" cy="24.18" r="0.25"/><circle cx="117.14" cy="33.12" r="0.25"/><circle cx="116.57" cy="35.86" r="0.19"/><circle cx="114.18" cy="44.67" r="0.24"/><circle cx="109.5" cy="61.76" r="0.23"/><circle cx="108.84" cy="64.93" r="0.24"/><circle cx="106.33" cy="73.95" r="0.2"/><circle cx="105.19" cy="75.97" r="0.21"/><circle cx="102.01" cy="88.43" r="0.24"/><circle cx="99.69" cy="99.7" r="0.28"/><circle cx="87.89" cy="142.85" r="0.2"/><circle cx="130.28" cy="-4.29" r="0.21"/><circle cx="129.56" cy="-1.54" r="0.24"/><circle cx="126.72" cy="7.99" r="0.19"/><circle cx="124.4" cy="15.87" r="0.26"/><circle cx="123.42" cy="22.42" r="0.26"/><circle cx="118.46" cy="39.12" r="0.21"/><circle cx="117.22" cy="45.87" r="0.24"/><circle cx="113.49" cy="59.9" r="0.27"/><circle cx="108.57" cy="76.96" r="0.19"/><circle cx="107.81" cy="80.27" r="0.27"/><circle cx="104.03" cy="94.69" r="0.23"/><circle cx="98.07" cy="114.67" r="0.22"/><circle cx="97.9" cy="117.4" r="0.27"/><circle cx="94.84" cy="126.61" r="0.26"/><circle cx="93.52" cy="131.83" r="0.23"/><circle cx="129.71" cy="8.8" r="0.24"/><circle cx="128.27" cy="13.98" r="0.25"/><circle cx="125.81" cy="25.73" r="0.19"/><circle cx="123.76" cy="31.88" r="0.19"/><circle cx="123.03" cy="34.51" r="0.25"/><circle cx="121.96" cy="39.96" r="0.22"/><circle cx="118.1" cy="52.07" r="0.21"/><circle cx="117.77" cy="55.12" r="0.26"/><circle cx="116.76" cy="57.23" r="0.27"/><circle cx="116.54" cy="61.11" r="0.19"/><circle cx="114.69" cy="66.92" r="0.23"/><circle cx="112.89" cy="72.65" r="0.2"/><circle cx="111.16" cy="77.46" r="0.27"/><circle cx="109.74" cy="83.68" r="0.27"/><circle cx="104.26" cy="103.85" r="0.24"/><circle cx="103.09" cy="110.08" r="0.22"/><circle cx="100.83" cy="118.64" r="0.24"/><circle cx="99.81" cy="121.14" r="0.19"/><circle cx="95.67" cy="135.59" r="0.28"/><circle cx="95.27" cy="139.2" r="0.26"/><circle cx="136.09" cy="-2.02" r="0.23"/><circle cx="134.53" cy="3.58" r="0.28"/><circle cx="134.06" cy="5.93" r="0.27"/><circle cx="131.64" cy="11.96" r="0.2"/><circle cx="129.53" cy="23.26" r="0.25"/><circle cx="127.42" cy="29.97" r="0.2"/><circle cx="126.32" cy="32.02" r="0.27"/><circle cx="124.98" cy="38.39" r="0.24"/><circle cx="122.4" cy="46.43" r="0.23"/><circle cx="118.66" cy="61.74" r="0.26"/><circle cx="117.81" cy="64.08" r="0.22"/><circle cx="116.87" cy="69.72" r="0.21"/><circle cx="108.91" cy="99.22" r="0.19"/><circle cx="104.38" cy="113.54" r="0.25"/><circle cx="101.97" cy="124.92" r="0.25"/><circle cx="99.78" cy="133.73" r="0.25"/><circle cx="137.66" cy="1.42" r="0.23"/><circle cx="135.29" cy="9.55" r="0.25"/><circle cx="131.43" cy="27.37" r="0.26"/><circle cx="129.87" cy="30.75" r="0.24"/><circle cx="129.76" cy="32.96" r="0.24"/><circle cx="129.25" cy="36" r="0.2"/><circle cx="125.81" cy="47.86" r="0.19"/><circle cx="121.37" cy="62.1" r="0.22"/><circle cx="121.3" cy="65.03" r="0.24"/><circle cx="120.4" cy="67.84" r="0.28"/><circle cx="118.94" cy="71.11" r="0.28"/><circle cx="114.6" cy="88" r="0.18"/><circle cx="112.33" cy="97.09" r="0.25"/><circle cx="112.22" cy="99.3" r="0.25"/><circle cx="109.65" cy="108.11" r="0.22"/><circle cx="107.18" cy="116.91" r="0.26"/><circle cx="104.67" cy="125.54" r="0.27"/><circle cx="104.31" cy="128.4" r="0.28"/><circle cx="100.52" cy="139.83" r="0.27"/><circle cx="142.64" cy="-3.31" r="0.26"/><circle cx="137.53" cy="16.88" r="0.28"/><circle cx="135.61" cy="22.67" r="0.19"/><circle cx="132.15" cy="36.66" r="0.2"/><circle cx="126.22" cy="57" r="0.27"/><circle cx="125.27" cy="59.53" r="0.27"/><circle cx="124.2" cy="62.79" r="0.22"/><circle cx="121.32" cy="77.38" r="0.25"/><circle cx="116.19" cy="94.4" r="0.25"/><circle cx="115.4" cy="97.74" r="0.22"/><circle cx="113.45" cy="103.39" r="0.27"/><circle cx="113.55" cy="106.61" r="0.25"/><circle cx="110.43" cy="118.32" r="0.28"/><circle cx="106.47" cy="132.56" r="0.26"/><circle cx="143.63" cy="5.73" r="0.26"/><circle cx="141.25" cy="11.56" r="0.24"/><circle cx="138.74" cy="20.67" r="0.27"/><circle cx="138.2" cy="23.66" r="0.24"/><circle cx="136.14" cy="31.46" r="0.2"/><circle cx="135.1" cy="37.12" r="0.26"/><circle cx="133.89" cy="40.29" r="0.24"/><circle cx="131.73" cy="46.32" r="0.21"/><circle cx="129.38" cy="55.25" r="0.26"/><circle cx="129.43" cy="58.25" r="0.24"/><circle cx="128.92" cy="60.46" r="0.2"/><circle cx="127.18" cy="66.57" r="0.22"/><circle cx="125.56" cy="69.55" r="0.27"/><circle cx="121.26" cy="87.14" r="0.19"/><circle cx="120.18" cy="92.59" r="0.2"/><circle cx="116.73" cy="103.87" r="0.23"/><circle cx="113.73" cy="116.13" r="0.28"/><circle cx="108.26" cy="135.97" r="0.23"/><circle cx="106.18" cy="141.54" r="0.27"/><circle cx="141.86" cy="21.01" r="0.28"/><circle cx="141.47" cy="24.39" r="0.26"/><circle cx="140.96" cy="27.22" r="0.24"/><circle cx="137.16" cy="41.24" r="0.25"/><circle cx="135.98" cy="43.9" r="0.21"/><circle cx="133.32" cy="52.39" r="0.24"/><circle cx="126.66" cy="79.26" r="0.28"/><circle cx="122.93" cy="93.08" r="0.27"/><circle cx="122.22" cy="96.14" r="0.19"/><circle cx="121.56" cy="99.4" r="0.19"/><circle cx="118.46" cy="108.15" r="0.26"/><circle cx="116.22" cy="119.71" r="0.23"/><circle cx="142.01" cy="33.51" r="0.26"/><circle cx="140.92" cy="36.59" r="0.19"/><circle cx="139.3" cy="41.58" r="0.24"/><circle cx="137.9" cy="47.99" r="0.26"/><circle cx="137.81" cy="50.82" r="0.24"/><circle cx="131.79" cy="71.53" r="0.27"/><circle cx="130.66" cy="73.94" r="0.24"/><circle cx="126.38" cy="91.66" r="0.21"/><circle cx="121.34" cy="109.1" r="0.2"/><circle cx="117.05" cy="126.57" r="0.28"/><circle cx="112.79" cy="143.12" r="0.21"/><circle cx="141.74" cy="45.89" r="0.2"/><circle cx="139.6" cy="54.18" r="0.19"/><circle cx="135" cy="71.34" r="0.25"/><circle cx="133.13" cy="77.57" r="0.21"/><circle cx="125.19" cy="106.29" r="0.23"/><circle cx="124.11" cy="109.83" r="0.19"/><circle cx="124.06" cy="112.78" r="0.25"/><circle cx="121.97" cy="118.59" r="0.25"/><circle cx="120.44" cy="127.27" r="0.24"/><circle cx="142.07" cy="55.19" r="0.19"/><circle cx="131.65" cy="96.14" r="0.2"/><circle cx="130.37" cy="101.35" r="0.24"/><circle cx="127.83" cy="107.62" r="0.28"/><circle cx="125.81" cy="115.75" r="0.2"/><circle cx="120.58" cy="136.66" r="0.21"/><circle cx="142.65" cy="65.21" r="0.27"/><circle cx="139.57" cy="76.34" r="0.22"/><circle cx="132.31" cy="102.22" r="0.25"/><circle cx="132.46" cy="105.46" r="0.27"/><circle cx="126.71" cy="125.31" r="0.26"/><circle cx="138.73" cy="91.99" r="0.23"/><circle cx="137.98" cy="94.06" r="0.26"/><circle cx="131.45" cy="120.22" r="0.28"/><circle cx="128.15" cy="132.4" r="0.24"/><circle cx="127.47" cy="135.28" r="0.25"/><circle cx="142.18" cy="92.51" r="0.25"/><circle cx="141.28" cy="95.06" r="0.19"/><circle cx="139.81" cy="97.56" r="0.24"/><circle cx="139.48" cy="101.54" r="0.26"/><circle cx="138.48" cy="103.77" r="0.2"/><circle cx="138.28" cy="106.92" r="0.25"/><circle cx="136.64" cy="109.84" r="0.24"/><circle cx="132.72" cy="124.09" r="0.26"/><circle cx="131.96" cy="127.56" r="0.19"/><circle cx="143.75" cy="96.29" r="0.23"/><circle cx="141.93" cy="104.94" r="0.28"/><circle cx="134.9" cy="127.42" r="0.21"/><circle cx="132.56" cy="136.09" r="0.27"/><circle cx="142.72" cy="110.87" r="0.2"/><circle cx="137.65" cy="128.58" r="0.27"/><circle cx="134.11" cy="143.11" r="0.27"/><circle cx="143.88" cy="121.21" r="0.26"/><circle cx="137.63" cy="143.55" r="0.26"/><circle cx="143.33" cy="133.07" r="0.26"/><circle cx="141.82" cy="139.37" r="0.27"/></g></g><text x="70" y="56" font-family="'Helvetica Neue', Helvetica, Arial, sans-serif" font-size="14" letter-spacing="1.6" fill="#17160f">EIGHT AXES · ONE APERTURE</text><text x="570" y="600" text-anchor="end" font-family="ui-monospace, 'SF Mono', Menlo, monospace" font-size="10" fill="#17160f">MINOR-INDEX</text>
</svg>
